<svg xmlns="http://www.w3.org/2000/svg" version="1.0" width="571.000000pt" height="271.000000pt" viewBox="0 0 571.000000 271.000000" preserveAspectRatio="xMidYMid meet">

<g transform="translate(0.000000,271.000000) scale(0.100000,-0.100000)" fill="#9ae600" stroke="none">
<path d="M4205 2673 c-140 -29 -270 -97 -392 -204 -62 -54 -168 -177 -159 -186 2 -2 42 25 89 60 148 113 253 152 390 145 226 -12 420 -208 496 -503 150 -578 -152 -1250 -596 -1327 -266 -45 -525 185 -627 558 -30 110 -34 69 -5 -69 83 -411 357 -735 680 -803 102 -22 291 -14 373 15 216 77 433 277 549 507 l26 50 -52 42 c-29 23 -82 72 -120 110 l-68 68 16 45 c8 24 18 50 20 58 4 9 28 -8 78 -55 85 -82 160 -144 174 -144 13 0 70 195 89 305 8 47 14 108 12 136 l-3 51 -93 53 c-51 30 -115 70 -142 90 l-50 37 0 64 c0 35 2 64 5 64 3 0 24 -12 47 -26 97 -61 230 -135 236 -130 3 3 0 45 -7 93 -16 119 -70 303 -96 329 -24 24 -104 56 -208 82 -70 18 -73 20 -95 66 -13 27 -21 50 -19 52 5 5 208 -39 240 -51 27 -11 20 7 -32 82 -79 113 -197 214 -315 272 -157 78 -289 97 -441 64z" fill="#9ae600"/>
<path d="M4810 2657 c0 -4 21 -18 48 -31 105 -54 218 -162 302 -289 33 -49 61 -94 63 -100 6 -18 92 30 150 83 l49 45 -41 47 c-84 95 -213 176 -344 217 -67 20 -227 40 -227 28z" fill="#9ae600"/>
<path d="M4034 2342 c-28 -10 -64 -27 -80 -38 l-29 -19 63 -3 c41 -2 82 3 114 14 62 20 138 21 196 1 42 -15 43 -15 26 4 -48 53 -194 74 -290 41z" fill="#9ae600"/>
<path d="M5451 2220 c-25 -21 -73 -53 -109 -70 -49 -24 -63 -35 -58 -48 44 -133 65 -229 92 -419 l5 -33 49 19 c75 29 130 64 184 120 l50 51 -19 72 c-23 94 -68 207 -111 286 -19 34 -36 62 -37 62 -1 -1 -22 -18 -46 -40z" fill="#9ae600"/>
<path d="M51 2116 c2 -2 101 -29 219 -61 510 -134 1467 -398 1490 -410 48 -25 70 -62 153 -265 46 -113 132 -317 190 -455 57 -137 157 -374 220 -525 164 -390 157 -375 171 -359 7 8 95 160 196 339 101 179 265 469 365 645 100 176 208 367 240 425 70 126 104 165 170 196 50 24 53 24 388 24 l337 0 10 22 c83 199 170 413 170 420 0 4 -208 8 -462 8 -522 0 -549 -3 -683 -69 -92 -45 -176 -120 -232 -208 -20 -32 -121 -206 -224 -388 -104 -181 -194 -338 -201 -348 -12 -17 -16 -11 -46 60 -18 43 -101 244 -184 446 -168 407 -184 435 -280 478 l-53 24 -979 3 c-539 1 -978 1 -975 -2z" fill="#9ae600"/>
<path d="M5645 1650 c-44 -45 -116 -89 -192 -115 -77 -27 -67 -5 -98 -205 -9 -58 -32 -152 -51 -210 -18 -57 -31 -106 -29 -108 11 -12 167 35 243 73 125 63 126 64 151 197 22 115 31 398 13 398 -5 0 -21 -14 -37 -30z" fill="#9ae600"/>
<path d="M3581 1473 c-24 -5 -24 -5 -18 -101 16 -245 128 -457 289 -542 55 -29 75 -35 151 -38 99 -5 141 11 59 22 -73 10 -183 68 -233 124 -82 92 -151 281 -167 460 -7 73 -8 77 -32 78 -14 1 -36 0 -49 -3z" fill="#9ae600"/>
<path d="M5525 949 c-70 -39 -164 -68 -244 -75 l-69 -7 -57 -91 c-79 -128 -173 -235 -269 -308 -75 -57 -205 -128 -233 -128 -6 0 -15 -5 -19 -11 -9 -15 221 -2 296 18 75 19 191 75 264 127 84 60 211 195 274 291 53 81 118 203 111 208 -2 2 -26 -9 -54 -24z" fill="#9ae600"/>
</g>
</svg>